<svg xmlns="http://www.w3.org/2000/svg" viewBox="0 0 64 64" role="img" aria-label="Organization and People Development">
  <defs>
    <linearGradient id="bg" x1="0%" y1="0%" x2="100%" y2="100%">
      <stop offset="0%" stop-color="#2563eb"/>
      <stop offset="100%" stop-color="#1d4ed8"/>
    </linearGradient>
  </defs>
  <rect width="64" height="64" rx="18" fill="url(#bg)"/>
  <path d="M20 32c0-7.18 5.82-13 13-13 5.5 0 10.2 3.42 12.08 8.25h-6.11A7.98 7.98 0 0 0 33 24c-4.42 0-8 3.58-8 8s3.58 8 8 8c2.53 0 4.79-1.18 6.26-3.01h-8.03v-4.98h14.05c.12.65.18 1.31.18 1.99 0 7.18-5.82 13-13 13s-13-5.82-13-13Z" fill="#fff"/>
</svg>
